# xmcd
#
# Track frame offsets:
# 182
# 15557
# 30307
# 51375
#
# Disc length: 883 seconds
#
#
# Revision: 0
# Processed by: cddbd v1.5.2PL0 Copyright (c) Steve Scherf et al.
# Submitted via: FreeRIP 2.941 
#
DISCID=26037104
DTITLE=Reneé Walker - Mercedes Benz
DYEAR=1995
DGENRE=Pop
TTITLE0=Mercedes-Benz (Radio Edit)
TTITLE1=Mercedes-Benz (Acoustic Version)
TTITLE2=Mercedes-Benz (Club Mix)
TTITLE3=Drive
EXTD=
EXTT0=
EXTT1=
EXTT2=
EXTT3=
PLAYORDER=
